<svg xmlns="http://www.w3.org/2000/svg" viewBox="0 0 32 32">
  <!-- 圆形边框 (和 TopBar logo 风格一致) -->
  <circle cx="16" cy="16" r="14" fill="#0f172a" stroke="#38bdf8" stroke-width="2"/>
  <!-- Waves 图标 (lucide Waves 的 path, 缩放居中) -->
  <g transform="translate(8 10)" fill="none" stroke="#38bdf8" stroke-width="2" stroke-linecap="round" stroke-linejoin="round">
    <path d="M2 6c.6.5 1.2 1 2.5 1C7 7 7 5 9.5 5c2.6 0 2.4 2 5 2 2.5 0 2.5-2 5-2 1.3 0 1.9.5 2.5 1"/>
    <path d="M2 12c.6.5 1.2 1 2.5 1 2.5 0 2.5-2 5-2 2.6 0 2.4 2 5 2 2.5 0 2.5-2 5-2 1.3 0 1.9.5 2.5 1"/>
  </g>
</svg>
